<mxfile host="app.diagrams.net" modified="2024-05-06T15:02:40.760Z" agent="Mozilla/5.0 (Windows NT 10.0; Win64; x64) AppleWebKit/537.36 (KHTML, like Gecko) Chrome/124.0.0.0 Safari/537.36 Edg/124.0.0.0" etag="Vc_f9F5fnNHYBuaGWdbd" version="24.3.1" type="github">
  <diagram name="第 1 页" id="wrtPZcLdbdhZVq8_dKf1">
    <mxGraphModel dx="746" dy="459" grid="1" gridSize="10" guides="1" tooltips="1" connect="1" arrows="1" fold="1" page="1" pageScale="1" pageWidth="827" pageHeight="1169" math="0" shadow="0">
      <root>
        <mxCell id="0" />
        <mxCell id="1" parent="0" />
        <mxCell id="BgbW1r_rEj53Mi3Xp0oi-9" value="" style="edgeStyle=orthogonalEdgeStyle;rounded=0;orthogonalLoop=1;jettySize=auto;html=1;" edge="1" parent="1" source="BgbW1r_rEj53Mi3Xp0oi-1" target="BgbW1r_rEj53Mi3Xp0oi-2">
          <mxGeometry relative="1" as="geometry" />
        </mxCell>
        <mxCell id="BgbW1r_rEj53Mi3Xp0oi-1" value="&lt;font style=&quot;font-size: 18px;&quot; face=&quot;宋体&quot;&gt;开始&lt;/font&gt;" style="rounded=1;whiteSpace=wrap;html=1;" vertex="1" parent="1">
          <mxGeometry x="270" y="60" width="120" height="60" as="geometry" />
        </mxCell>
        <mxCell id="BgbW1r_rEj53Mi3Xp0oi-10" value="" style="edgeStyle=orthogonalEdgeStyle;rounded=0;orthogonalLoop=1;jettySize=auto;html=1;" edge="1" parent="1" source="BgbW1r_rEj53Mi3Xp0oi-2" target="BgbW1r_rEj53Mi3Xp0oi-3">
          <mxGeometry relative="1" as="geometry" />
        </mxCell>
        <mxCell id="BgbW1r_rEj53Mi3Xp0oi-2" value="&lt;font style=&quot;font-size: 18px;&quot; face=&quot;宋体&quot;&gt;系统初始化&lt;/font&gt;" style="rounded=0;whiteSpace=wrap;html=1;" vertex="1" parent="1">
          <mxGeometry x="270" y="170" width="120" height="60" as="geometry" />
        </mxCell>
        <mxCell id="BgbW1r_rEj53Mi3Xp0oi-11" value="" style="edgeStyle=orthogonalEdgeStyle;rounded=0;orthogonalLoop=1;jettySize=auto;html=1;" edge="1" parent="1" source="BgbW1r_rEj53Mi3Xp0oi-3" target="BgbW1r_rEj53Mi3Xp0oi-4">
          <mxGeometry relative="1" as="geometry" />
        </mxCell>
        <mxCell id="BgbW1r_rEj53Mi3Xp0oi-3" value="&lt;font style=&quot;font-size: 18px;&quot; face=&quot;宋体&quot;&gt;传感器初始化&lt;/font&gt;" style="rounded=0;whiteSpace=wrap;html=1;" vertex="1" parent="1">
          <mxGeometry x="270" y="280" width="120" height="60" as="geometry" />
        </mxCell>
        <mxCell id="BgbW1r_rEj53Mi3Xp0oi-14" style="edgeStyle=orthogonalEdgeStyle;rounded=0;orthogonalLoop=1;jettySize=auto;html=1;" edge="1" parent="1" source="BgbW1r_rEj53Mi3Xp0oi-4" target="BgbW1r_rEj53Mi3Xp0oi-5">
          <mxGeometry relative="1" as="geometry" />
        </mxCell>
        <mxCell id="BgbW1r_rEj53Mi3Xp0oi-4" value="&lt;font style=&quot;font-size: 18px;&quot; face=&quot;宋体&quot;&gt;读取环境信息数据&lt;/font&gt;" style="rounded=0;whiteSpace=wrap;html=1;" vertex="1" parent="1">
          <mxGeometry x="270" y="390" width="120" height="60" as="geometry" />
        </mxCell>
        <mxCell id="BgbW1r_rEj53Mi3Xp0oi-15" value="" style="edgeStyle=orthogonalEdgeStyle;rounded=0;orthogonalLoop=1;jettySize=auto;html=1;" edge="1" parent="1" source="BgbW1r_rEj53Mi3Xp0oi-5" target="BgbW1r_rEj53Mi3Xp0oi-6">
          <mxGeometry relative="1" as="geometry" />
        </mxCell>
        <mxCell id="BgbW1r_rEj53Mi3Xp0oi-5" value="&lt;font style=&quot;font-size: 18px;&quot; face=&quot;宋体&quot;&gt;数据处理&lt;/font&gt;" style="rounded=0;whiteSpace=wrap;html=1;" vertex="1" parent="1">
          <mxGeometry x="270" y="500" width="120" height="60" as="geometry" />
        </mxCell>
        <mxCell id="BgbW1r_rEj53Mi3Xp0oi-16" value="" style="edgeStyle=orthogonalEdgeStyle;rounded=0;orthogonalLoop=1;jettySize=auto;html=1;" edge="1" parent="1" source="BgbW1r_rEj53Mi3Xp0oi-6" target="BgbW1r_rEj53Mi3Xp0oi-7">
          <mxGeometry relative="1" as="geometry" />
        </mxCell>
        <mxCell id="BgbW1r_rEj53Mi3Xp0oi-6" value="&lt;font style=&quot;font-size: 18px;&quot; face=&quot;宋体&quot;&gt;发送环境信息数据&lt;/font&gt;" style="rounded=0;whiteSpace=wrap;html=1;" vertex="1" parent="1">
          <mxGeometry x="545" y="390" width="120" height="60" as="geometry" />
        </mxCell>
        <mxCell id="BgbW1r_rEj53Mi3Xp0oi-17" value="" style="edgeStyle=orthogonalEdgeStyle;rounded=0;orthogonalLoop=1;jettySize=auto;html=1;" edge="1" parent="1" source="BgbW1r_rEj53Mi3Xp0oi-7" target="BgbW1r_rEj53Mi3Xp0oi-8">
          <mxGeometry relative="1" as="geometry" />
        </mxCell>
        <mxCell id="BgbW1r_rEj53Mi3Xp0oi-24" value="是" style="edgeLabel;html=1;align=center;verticalAlign=middle;resizable=0;points=[];" vertex="1" connectable="0" parent="BgbW1r_rEj53Mi3Xp0oi-17">
          <mxGeometry x="-0.0889" relative="1" as="geometry">
            <mxPoint as="offset" />
          </mxGeometry>
        </mxCell>
        <mxCell id="BgbW1r_rEj53Mi3Xp0oi-22" style="edgeStyle=orthogonalEdgeStyle;rounded=0;orthogonalLoop=1;jettySize=auto;html=1;exitX=1;exitY=0.5;exitDx=0;exitDy=0;entryX=1;entryY=0.5;entryDx=0;entryDy=0;" edge="1" parent="1" source="BgbW1r_rEj53Mi3Xp0oi-7" target="BgbW1r_rEj53Mi3Xp0oi-6">
          <mxGeometry relative="1" as="geometry" />
        </mxCell>
        <mxCell id="BgbW1r_rEj53Mi3Xp0oi-23" value="否" style="edgeLabel;html=1;align=center;verticalAlign=middle;resizable=0;points=[];" vertex="1" connectable="0" parent="BgbW1r_rEj53Mi3Xp0oi-22">
          <mxGeometry x="-0.2225" y="1" relative="1" as="geometry">
            <mxPoint as="offset" />
          </mxGeometry>
        </mxCell>
        <mxCell id="BgbW1r_rEj53Mi3Xp0oi-7" value="&lt;font style=&quot;font-size: 18px;&quot; face=&quot;宋体&quot;&gt;数据发送成功&lt;/font&gt;" style="rhombus;whiteSpace=wrap;html=1;" vertex="1" parent="1">
          <mxGeometry x="507.5" y="250" width="195" height="80" as="geometry" />
        </mxCell>
        <mxCell id="BgbW1r_rEj53Mi3Xp0oi-25" style="edgeStyle=orthogonalEdgeStyle;rounded=0;orthogonalLoop=1;jettySize=auto;html=1;entryX=1;entryY=0.5;entryDx=0;entryDy=0;" edge="1" parent="1" source="BgbW1r_rEj53Mi3Xp0oi-8" target="BgbW1r_rEj53Mi3Xp0oi-4">
          <mxGeometry relative="1" as="geometry" />
        </mxCell>
        <mxCell id="BgbW1r_rEj53Mi3Xp0oi-8" value="&lt;font style=&quot;font-size: 18px;&quot; face=&quot;宋体&quot;&gt;等待采集间隔&lt;/font&gt;" style="rounded=0;whiteSpace=wrap;html=1;" vertex="1" parent="1">
          <mxGeometry x="545" y="130" width="120" height="60" as="geometry" />
        </mxCell>
      </root>
    </mxGraphModel>
  </diagram>
</mxfile>
